<mxfile host="app.diagrams.net" modified="2024-03-27T12:33:32.311Z" agent="Mozilla/5.0 (Windows NT 10.0; Win64; x64) AppleWebKit/537.36 (KHTML, like Gecko) Chrome/123.0.0.0 Safari/537.36" etag="epuU_ajzkoH3FX07x5mG" version="24.2.0" type="device">
  <diagram name="Page-1" id="o6HwNpgGEAJ52HBJFcUS">
    <mxGraphModel dx="1900" dy="557" grid="1" gridSize="10" guides="1" tooltips="1" connect="1" arrows="1" fold="1" page="1" pageScale="1" pageWidth="850" pageHeight="1100" math="0" shadow="0">
      <root>
        <mxCell id="0" />
        <mxCell id="1" parent="0" />
        <mxCell id="ygTpOsxxo4-NPXB0z-Y--1" value="user" style="rounded=0;whiteSpace=wrap;html=1;" vertex="1" parent="1">
          <mxGeometry x="-60" y="180" width="120" height="60" as="geometry" />
        </mxCell>
        <mxCell id="ygTpOsxxo4-NPXB0z-Y--2" value="id" style="ellipse;whiteSpace=wrap;html=1;" vertex="1" parent="1">
          <mxGeometry x="-100" y="60" width="110" height="80" as="geometry" />
        </mxCell>
        <mxCell id="ygTpOsxxo4-NPXB0z-Y--3" value="" style="endArrow=none;html=1;rounded=0;exitX=0.35;exitY=-0.01;exitDx=0;exitDy=0;exitPerimeter=0;" edge="1" parent="1" source="ygTpOsxxo4-NPXB0z-Y--1" target="ygTpOsxxo4-NPXB0z-Y--2">
          <mxGeometry width="50" height="50" relative="1" as="geometry">
            <mxPoint x="400" y="320" as="sourcePoint" />
            <mxPoint x="450" y="270" as="targetPoint" />
          </mxGeometry>
        </mxCell>
        <mxCell id="ygTpOsxxo4-NPXB0z-Y--4" value="name" style="ellipse;whiteSpace=wrap;html=1;" vertex="1" parent="1">
          <mxGeometry x="-30" y="10" width="110" height="70" as="geometry" />
        </mxCell>
        <mxCell id="ygTpOsxxo4-NPXB0z-Y--6" value="" style="endArrow=none;html=1;rounded=0;exitX=0.383;exitY=0.003;exitDx=0;exitDy=0;exitPerimeter=0;" edge="1" parent="1" source="ygTpOsxxo4-NPXB0z-Y--1" target="ygTpOsxxo4-NPXB0z-Y--4">
          <mxGeometry width="50" height="50" relative="1" as="geometry">
            <mxPoint x="400" y="320" as="sourcePoint" />
            <mxPoint x="450" y="270" as="targetPoint" />
          </mxGeometry>
        </mxCell>
        <mxCell id="ygTpOsxxo4-NPXB0z-Y--10" value="email(username)" style="ellipse;whiteSpace=wrap;html=1;" vertex="1" parent="1">
          <mxGeometry x="80" width="110" height="70" as="geometry" />
        </mxCell>
        <mxCell id="ygTpOsxxo4-NPXB0z-Y--12" value="" style="endArrow=none;html=1;rounded=0;exitX=0.39;exitY=0.043;exitDx=0;exitDy=0;exitPerimeter=0;" edge="1" parent="1" source="ygTpOsxxo4-NPXB0z-Y--1" target="ygTpOsxxo4-NPXB0z-Y--10">
          <mxGeometry width="50" height="50" relative="1" as="geometry">
            <mxPoint x="460" y="260" as="sourcePoint" />
            <mxPoint x="450" y="270" as="targetPoint" />
          </mxGeometry>
        </mxCell>
        <mxCell id="ygTpOsxxo4-NPXB0z-Y--13" value="passwrod" style="ellipse;whiteSpace=wrap;html=1;" vertex="1" parent="1">
          <mxGeometry x="170" y="20" width="120" height="80" as="geometry" />
        </mxCell>
        <mxCell id="ygTpOsxxo4-NPXB0z-Y--15" value="about" style="ellipse;whiteSpace=wrap;html=1;" vertex="1" parent="1">
          <mxGeometry x="150" y="110" width="120" height="80" as="geometry" />
        </mxCell>
        <mxCell id="ygTpOsxxo4-NPXB0z-Y--16" value="" style="endArrow=none;html=1;rounded=0;entryX=0;entryY=0;entryDx=0;entryDy=0;exitX=0.4;exitY=-0.077;exitDx=0;exitDy=0;exitPerimeter=0;" edge="1" parent="1" source="ygTpOsxxo4-NPXB0z-Y--1" target="ygTpOsxxo4-NPXB0z-Y--15">
          <mxGeometry width="50" height="50" relative="1" as="geometry">
            <mxPoint x="410" y="260" as="sourcePoint" />
            <mxPoint x="450" y="270" as="targetPoint" />
          </mxGeometry>
        </mxCell>
        <mxCell id="ygTpOsxxo4-NPXB0z-Y--17" value="post" style="rounded=0;whiteSpace=wrap;html=1;" vertex="1" parent="1">
          <mxGeometry x="540" y="150" width="120" height="60" as="geometry" />
        </mxCell>
        <mxCell id="ygTpOsxxo4-NPXB0z-Y--18" value="pid" style="ellipse;whiteSpace=wrap;html=1;" vertex="1" parent="1">
          <mxGeometry x="410" y="20" width="120" height="80" as="geometry" />
        </mxCell>
        <mxCell id="ygTpOsxxo4-NPXB0z-Y--19" value="" style="endArrow=none;html=1;rounded=0;entryX=0.5;entryY=1;entryDx=0;entryDy=0;exitX=0.08;exitY=0.037;exitDx=0;exitDy=0;exitPerimeter=0;" edge="1" parent="1" source="ygTpOsxxo4-NPXB0z-Y--17" target="ygTpOsxxo4-NPXB0z-Y--18">
          <mxGeometry width="50" height="50" relative="1" as="geometry">
            <mxPoint x="78" y="440" as="sourcePoint" />
            <mxPoint x="420" y="270" as="targetPoint" />
          </mxGeometry>
        </mxCell>
        <mxCell id="ygTpOsxxo4-NPXB0z-Y--20" value="title" style="ellipse;whiteSpace=wrap;html=1;" vertex="1" parent="1">
          <mxGeometry x="530" y="10" width="120" height="85" as="geometry" />
        </mxCell>
        <mxCell id="ygTpOsxxo4-NPXB0z-Y--21" value="" style="endArrow=none;html=1;rounded=0;exitX=0.163;exitY=-0.01;exitDx=0;exitDy=0;exitPerimeter=0;entryX=0.23;entryY=0.986;entryDx=0;entryDy=0;entryPerimeter=0;" edge="1" target="ygTpOsxxo4-NPXB0z-Y--20" parent="1" source="ygTpOsxxo4-NPXB0z-Y--17">
          <mxGeometry width="50" height="50" relative="1" as="geometry">
            <mxPoint x="165" y="440" as="sourcePoint" />
            <mxPoint x="140" y="350" as="targetPoint" />
          </mxGeometry>
        </mxCell>
        <mxCell id="ygTpOsxxo4-NPXB0z-Y--22" value="content" style="ellipse;whiteSpace=wrap;html=1;" vertex="1" parent="1">
          <mxGeometry x="670" width="120" height="85" as="geometry" />
        </mxCell>
        <mxCell id="ygTpOsxxo4-NPXB0z-Y--23" value="" style="endArrow=none;html=1;rounded=0;exitX=0.157;exitY=-0.05;exitDx=0;exitDy=0;entryX=0;entryY=0.5;entryDx=0;entryDy=0;exitPerimeter=0;" edge="1" parent="1" source="ygTpOsxxo4-NPXB0z-Y--17" target="ygTpOsxxo4-NPXB0z-Y--22">
          <mxGeometry width="50" height="50" relative="1" as="geometry">
            <mxPoint x="390" y="370" as="sourcePoint" />
            <mxPoint x="460" y="450" as="targetPoint" />
          </mxGeometry>
        </mxCell>
        <mxCell id="ygTpOsxxo4-NPXB0z-Y--25" value="image" style="ellipse;whiteSpace=wrap;html=1;" vertex="1" parent="1">
          <mxGeometry x="720" y="70" width="120" height="80" as="geometry" />
        </mxCell>
        <mxCell id="ygTpOsxxo4-NPXB0z-Y--26" value="" style="endArrow=none;html=1;rounded=0;entryX=0.15;entryY=0.017;entryDx=0;entryDy=0;entryPerimeter=0;exitX=0.02;exitY=0.6;exitDx=0;exitDy=0;exitPerimeter=0;" edge="1" parent="1" source="ygTpOsxxo4-NPXB0z-Y--25" target="ygTpOsxxo4-NPXB0z-Y--17">
          <mxGeometry width="50" height="50" relative="1" as="geometry">
            <mxPoint x="270" y="480" as="sourcePoint" />
            <mxPoint x="390" y="430" as="targetPoint" />
          </mxGeometry>
        </mxCell>
        <mxCell id="ygTpOsxxo4-NPXB0z-Y--27" value="" style="endArrow=none;html=1;rounded=0;exitX=0.36;exitY=-0.037;exitDx=0;exitDy=0;exitPerimeter=0;" edge="1" parent="1" source="ygTpOsxxo4-NPXB0z-Y--1" target="ygTpOsxxo4-NPXB0z-Y--13">
          <mxGeometry width="50" height="50" relative="1" as="geometry">
            <mxPoint x="410" y="260" as="sourcePoint" />
            <mxPoint x="580.2" y="218.42000000000002" as="targetPoint" />
          </mxGeometry>
        </mxCell>
        <mxCell id="ygTpOsxxo4-NPXB0z-Y--38" value="&lt;i style=&quot;background-color: rgb(255, 255, 255);&quot;&gt;userid&lt;/i&gt;" style="ellipse;whiteSpace=wrap;html=1;fillColor=#f8cecc;strokeColor=#b85450;" vertex="1" parent="1">
          <mxGeometry x="700" y="150" width="120" height="80" as="geometry" />
        </mxCell>
        <mxCell id="ygTpOsxxo4-NPXB0z-Y--47" value="" style="endArrow=none;html=1;rounded=0;exitX=0.153;exitY=-0.043;exitDx=0;exitDy=0;entryX=0.04;entryY=0.65;entryDx=0;entryDy=0;entryPerimeter=0;exitPerimeter=0;" edge="1" parent="1" source="ygTpOsxxo4-NPXB0z-Y--17" target="ygTpOsxxo4-NPXB0z-Y--38">
          <mxGeometry width="50" height="50" relative="1" as="geometry">
            <mxPoint x="420" y="550" as="sourcePoint" />
            <mxPoint x="470" y="470" as="targetPoint" />
          </mxGeometry>
        </mxCell>
        <mxCell id="ygTpOsxxo4-NPXB0z-Y--48" value="&lt;div&gt;can create&lt;/div&gt;" style="rhombus;whiteSpace=wrap;html=1;align=center;" vertex="1" parent="1">
          <mxGeometry x="310" y="190" width="90" height="90" as="geometry" />
        </mxCell>
        <mxCell id="ygTpOsxxo4-NPXB0z-Y--49" value="" style="endArrow=none;html=1;rounded=0;entryX=0.993;entryY=0.617;entryDx=0;entryDy=0;entryPerimeter=0;exitX=0;exitY=0.5;exitDx=0;exitDy=0;" edge="1" parent="1" source="ygTpOsxxo4-NPXB0z-Y--48" target="ygTpOsxxo4-NPXB0z-Y--1">
          <mxGeometry width="50" height="50" relative="1" as="geometry">
            <mxPoint x="400" y="300" as="sourcePoint" />
            <mxPoint x="450" y="250" as="targetPoint" />
          </mxGeometry>
        </mxCell>
        <mxCell id="ygTpOsxxo4-NPXB0z-Y--50" value="" style="endArrow=none;html=1;rounded=0;exitX=1;exitY=0.5;exitDx=0;exitDy=0;" edge="1" parent="1" source="ygTpOsxxo4-NPXB0z-Y--48" target="ygTpOsxxo4-NPXB0z-Y--17">
          <mxGeometry width="50" height="50" relative="1" as="geometry">
            <mxPoint x="400" y="300" as="sourcePoint" />
            <mxPoint x="450" y="250" as="targetPoint" />
          </mxGeometry>
        </mxCell>
        <mxCell id="ygTpOsxxo4-NPXB0z-Y--51" value="n" style="text;html=1;align=center;verticalAlign=middle;resizable=0;points=[];autosize=1;strokeColor=none;fillColor=none;" vertex="1" parent="1">
          <mxGeometry x="455" y="188" width="30" height="30" as="geometry" />
        </mxCell>
        <mxCell id="ygTpOsxxo4-NPXB0z-Y--52" value="1" style="text;html=1;align=center;verticalAlign=middle;resizable=0;points=[];autosize=1;strokeColor=none;fillColor=none;" vertex="1" parent="1">
          <mxGeometry x="165" y="198" width="30" height="30" as="geometry" />
        </mxCell>
        <mxCell id="ygTpOsxxo4-NPXB0z-Y--53" value="comment" style="rounded=0;whiteSpace=wrap;html=1;" vertex="1" parent="1">
          <mxGeometry x="310" y="430" width="120" height="60" as="geometry" />
        </mxCell>
        <mxCell id="ygTpOsxxo4-NPXB0z-Y--54" value="cid" style="ellipse;whiteSpace=wrap;html=1;" vertex="1" parent="1">
          <mxGeometry x="195" y="300" width="120" height="80" as="geometry" />
        </mxCell>
        <mxCell id="ygTpOsxxo4-NPXB0z-Y--55" value="" style="endArrow=none;html=1;rounded=0;entryX=1;entryY=1;entryDx=0;entryDy=0;" edge="1" parent="1" source="ygTpOsxxo4-NPXB0z-Y--53" target="ygTpOsxxo4-NPXB0z-Y--54">
          <mxGeometry width="50" height="50" relative="1" as="geometry">
            <mxPoint x="400" y="300" as="sourcePoint" />
            <mxPoint x="450" y="250" as="targetPoint" />
            <Array as="points">
              <mxPoint x="340" y="420" />
            </Array>
          </mxGeometry>
        </mxCell>
        <mxCell id="ygTpOsxxo4-NPXB0z-Y--56" value="comment" style="ellipse;whiteSpace=wrap;html=1;" vertex="1" parent="1">
          <mxGeometry x="395" y="300" width="120" height="80" as="geometry" />
        </mxCell>
        <mxCell id="ygTpOsxxo4-NPXB0z-Y--59" value="" style="endArrow=none;html=1;rounded=0;exitX=0.25;exitY=0;exitDx=0;exitDy=0;entryX=0;entryY=1;entryDx=0;entryDy=0;" edge="1" parent="1" source="ygTpOsxxo4-NPXB0z-Y--53" target="ygTpOsxxo4-NPXB0z-Y--56">
          <mxGeometry width="50" height="50" relative="1" as="geometry">
            <mxPoint x="400" y="300" as="sourcePoint" />
            <mxPoint x="450" y="250" as="targetPoint" />
          </mxGeometry>
        </mxCell>
        <mxCell id="ygTpOsxxo4-NPXB0z-Y--60" value="post id" style="ellipse;whiteSpace=wrap;html=1;" vertex="1" parent="1">
          <mxGeometry x="500" y="360" width="120" height="80" as="geometry" />
        </mxCell>
        <mxCell id="ygTpOsxxo4-NPXB0z-Y--61" value="userid" style="ellipse;whiteSpace=wrap;html=1;" vertex="1" parent="1">
          <mxGeometry x="90" y="380" width="120" height="80" as="geometry" />
        </mxCell>
        <mxCell id="ygTpOsxxo4-NPXB0z-Y--62" value="" style="endArrow=none;html=1;rounded=0;exitX=0.25;exitY=0;exitDx=0;exitDy=0;entryX=1;entryY=0.5;entryDx=0;entryDy=0;" edge="1" parent="1" source="ygTpOsxxo4-NPXB0z-Y--53" target="ygTpOsxxo4-NPXB0z-Y--61">
          <mxGeometry width="50" height="50" relative="1" as="geometry">
            <mxPoint x="400" y="300" as="sourcePoint" />
            <mxPoint x="450" y="250" as="targetPoint" />
          </mxGeometry>
        </mxCell>
        <mxCell id="ygTpOsxxo4-NPXB0z-Y--63" value="" style="endArrow=none;html=1;rounded=0;exitX=0.25;exitY=0;exitDx=0;exitDy=0;entryX=0;entryY=0.5;entryDx=0;entryDy=0;" edge="1" parent="1" source="ygTpOsxxo4-NPXB0z-Y--53" target="ygTpOsxxo4-NPXB0z-Y--60">
          <mxGeometry width="50" height="50" relative="1" as="geometry">
            <mxPoint x="400" y="300" as="sourcePoint" />
            <mxPoint x="450" y="250" as="targetPoint" />
          </mxGeometry>
        </mxCell>
        <mxCell id="ygTpOsxxo4-NPXB0z-Y--64" value="do" style="rhombus;whiteSpace=wrap;html=1;" vertex="1" parent="1">
          <mxGeometry x="-20" y="330" width="80" height="80" as="geometry" />
        </mxCell>
        <mxCell id="ygTpOsxxo4-NPXB0z-Y--65" value="" style="endArrow=none;html=1;rounded=0;entryX=0.5;entryY=1;entryDx=0;entryDy=0;" edge="1" parent="1" source="ygTpOsxxo4-NPXB0z-Y--64" target="ygTpOsxxo4-NPXB0z-Y--1">
          <mxGeometry width="50" height="50" relative="1" as="geometry">
            <mxPoint x="20" y="320" as="sourcePoint" />
            <mxPoint x="450" y="250" as="targetPoint" />
          </mxGeometry>
        </mxCell>
        <mxCell id="ygTpOsxxo4-NPXB0z-Y--67" value="" style="endArrow=none;html=1;rounded=0;exitX=0;exitY=0.5;exitDx=0;exitDy=0;entryX=0.5;entryY=1;entryDx=0;entryDy=0;" edge="1" parent="1" source="ygTpOsxxo4-NPXB0z-Y--53" target="ygTpOsxxo4-NPXB0z-Y--64">
          <mxGeometry width="50" height="50" relative="1" as="geometry">
            <mxPoint x="400" y="300" as="sourcePoint" />
            <mxPoint x="450" y="250" as="targetPoint" />
            <Array as="points">
              <mxPoint x="150" y="520" />
            </Array>
          </mxGeometry>
        </mxCell>
        <mxCell id="ygTpOsxxo4-NPXB0z-Y--68" value="have" style="rhombus;whiteSpace=wrap;html=1;" vertex="1" parent="1">
          <mxGeometry x="660" y="280" width="80" height="80" as="geometry" />
        </mxCell>
        <mxCell id="ygTpOsxxo4-NPXB0z-Y--69" value="" style="endArrow=none;html=1;rounded=0;entryX=0.407;entryY=1.01;entryDx=0;entryDy=0;entryPerimeter=0;exitX=0.5;exitY=0;exitDx=0;exitDy=0;" edge="1" parent="1" source="ygTpOsxxo4-NPXB0z-Y--68" target="ygTpOsxxo4-NPXB0z-Y--17">
          <mxGeometry width="50" height="50" relative="1" as="geometry">
            <mxPoint x="400" y="300" as="sourcePoint" />
            <mxPoint x="450" y="250" as="targetPoint" />
          </mxGeometry>
        </mxCell>
        <mxCell id="ygTpOsxxo4-NPXB0z-Y--70" value="" style="endArrow=none;html=1;rounded=0;exitX=0.423;exitY=1.05;exitDx=0;exitDy=0;exitPerimeter=0;entryX=0.5;entryY=1;entryDx=0;entryDy=0;" edge="1" parent="1" source="ygTpOsxxo4-NPXB0z-Y--53" target="ygTpOsxxo4-NPXB0z-Y--68">
          <mxGeometry width="50" height="50" relative="1" as="geometry">
            <mxPoint x="400" y="300" as="sourcePoint" />
            <mxPoint x="450" y="250" as="targetPoint" />
            <Array as="points">
              <mxPoint x="690" y="520" />
            </Array>
          </mxGeometry>
        </mxCell>
        <mxCell id="ygTpOsxxo4-NPXB0z-Y--71" value="1" style="text;html=1;align=center;verticalAlign=middle;resizable=0;points=[];autosize=1;strokeColor=none;fillColor=none;" vertex="1" parent="1">
          <mxGeometry x="645" y="218" width="30" height="30" as="geometry" />
        </mxCell>
        <mxCell id="ygTpOsxxo4-NPXB0z-Y--72" value="n" style="text;html=1;align=center;verticalAlign=middle;resizable=0;points=[];autosize=1;strokeColor=none;fillColor=none;" vertex="1" parent="1">
          <mxGeometry x="605" y="488" width="30" height="30" as="geometry" />
        </mxCell>
        <mxCell id="ygTpOsxxo4-NPXB0z-Y--73" value="n" style="text;html=1;align=center;verticalAlign=middle;resizable=0;points=[];autosize=1;strokeColor=none;fillColor=none;" vertex="1" parent="1">
          <mxGeometry x="225" y="478" width="30" height="30" as="geometry" />
        </mxCell>
        <mxCell id="ygTpOsxxo4-NPXB0z-Y--74" value="1" style="text;html=1;align=center;verticalAlign=middle;resizable=0;points=[];autosize=1;strokeColor=none;fillColor=none;" vertex="1" parent="1">
          <mxGeometry x="-15" y="268" width="30" height="30" as="geometry" />
        </mxCell>
        <mxCell id="ygTpOsxxo4-NPXB0z-Y--75" value="date" style="ellipse;whiteSpace=wrap;html=1;" vertex="1" parent="1">
          <mxGeometry x="350" y="100" width="120" height="80" as="geometry" />
        </mxCell>
        <mxCell id="ygTpOsxxo4-NPXB0z-Y--76" value="" style="endArrow=none;html=1;rounded=0;entryX=0.943;entryY=0.802;entryDx=0;entryDy=0;entryPerimeter=0;" edge="1" parent="1" target="ygTpOsxxo4-NPXB0z-Y--75">
          <mxGeometry width="50" height="50" relative="1" as="geometry">
            <mxPoint x="560" y="150" as="sourcePoint" />
            <mxPoint x="450" y="250" as="targetPoint" />
          </mxGeometry>
        </mxCell>
      </root>
    </mxGraphModel>
  </diagram>
</mxfile>
